<svg version="1.1" id="Layer_1" xmlns="http://www.w3.org/2000/svg" xmlns:xlink="http://www.w3.org/1999/xlink" x="0px" y="0px"
	 width="100%" viewBox="0 0 1024 1024" enable-background="new 0 0 1024 1024" xml:space="preserve">
<path fill="#000000" opacity="1.000000" stroke="none" 
	d="
M338.775146,595.612549 
	C337.975311,614.483032 322.842804,630.066284 306.173859,634.026428 
	C286.300110,638.747925 265.919922,630.440369 256.261169,614.152771 
	C250.970154,605.230469 248.184540,595.878479 248.663666,585.322937 
	C249.445679,568.095093 263.391968,550.603821 280.147797,546.643677 
	C284.125305,545.703613 287.549591,543.664978 289.987640,540.280151 
	C309.128448,513.706238 334.744354,495.009918 363.646942,480.598236 
	C372.895477,475.986633 382.447174,471.549194 393.078064,470.448029 
	C395.054718,470.243317 397.639313,469.011627 398.634766,467.430237 
	C402.823181,460.776245 407.822449,454.498840 410.180359,446.704620 
	C406.679901,444.336304 403.074768,445.217957 399.692566,445.190338 
	C378.997162,445.021271 361.825775,437.254059 348.265839,421.616608 
	C341.393494,413.691284 337.234558,404.376160 334.722565,394.279602 
	C333.808716,390.606598 332.553741,387.063690 332.433655,383.135040 
	C332.341522,380.121521 330.381104,377.989410 327.001373,376.819916 
	C311.956238,371.613922 301.556976,360.934418 297.309753,346.007965 
	C290.668091,322.666595 298.456207,301.783936 321.439484,287.951630 
	C322.413269,287.365540 323.554993,287.021057 324.656464,286.690704 
	C330.750397,284.863281 332.317871,282.620270 332.659180,276.334930 
	C333.975677,252.091263 344.647064,233.537704 366.526611,222.249496 
	C373.127319,218.844025 377.682007,214.467270 381.170776,207.582611 
	C390.040649,190.078873 404.174225,177.964203 423.378693,172.871414 
	C436.750824,169.325333 450.533875,168.451828 464.357910,169.520203 
	C469.721130,169.934692 474.998871,168.977570 480.330200,169.059891 
	C496.485535,169.309372 512.642212,169.475479 528.797241,169.739059 
	C545.438599,170.010574 562.071167,168.549698 578.721436,169.661942 
	C587.688660,170.260971 596.928955,169.273132 605.616577,171.073517 
	C628.413696,175.797867 646.469849,187.860367 656.431458,209.579605 
	C659.243164,215.709976 663.414429,219.356506 668.843201,222.482422 
	C688.401001,233.743896 699.902466,250.396744 701.189026,273.158173 
	C701.638062,281.101654 705.117676,285.477051 712.188293,288.297119 
	C731.753540,296.100525 741.759399,318.684326 738.797974,337.217987 
	C735.825317,355.822876 725.969360,369.237518 708.382385,376.158691 
	C703.273743,378.169098 701.651306,380.989349 701.267700,385.959076 
	C700.025452,402.054626 693.410645,415.719147 681.893860,427.027435 
	C668.737732,439.945190 652.395691,444.489166 634.546448,445.128906 
	C632.757812,445.192963 630.867004,444.793365 628.954224,446.168091 
	C628.914246,449.046906 630.651123,451.307129 632.302063,453.505554 
	C635.530273,457.804443 638.425171,462.218079 639.484863,467.624939 
	C640.260376,471.581482 643.334534,473.608704 646.769775,474.402100 
	C660.265381,477.519043 672.251831,483.977264 683.738525,491.266083 
	C699.084961,501.004120 713.410950,512.126099 726.237122,525.118713 
	C730.703918,529.643433 734.963562,534.342529 738.608948,539.487854 
	C741.341980,543.345154 745.064880,545.379517 749.181763,546.425781 
	C772.945984,552.464783 782.533386,573.642029 781.196716,592.187500 
	C779.158569,620.464783 750.318298,641.035156 722.852478,634.080139 
	C706.176819,629.857483 696.525024,618.809387 691.156067,603.191956 
	C690.891907,602.423462 690.729858,601.521851 690.851929,600.733582 
	C692.199402,592.032532 687.853271,585.685181 682.237305,579.911011 
	C672.003784,569.389282 661.095215,559.621399 649.316040,550.846558 
	C647.817322,549.730103 646.151550,548.627380 644.275085,549.644714 
	C642.408081,550.656860 642.453857,552.754822 642.442505,554.538330 
	C642.363037,567.037292 642.248779,579.538208 642.387146,592.035828 
	C642.601440,611.388733 635.026306,626.635864 618.622925,637.062683 
	C615.074219,639.318420 614.597107,641.591064 615.580200,645.262634 
	C618.160706,654.900330 620.633545,664.574280 622.808105,674.310059 
	C623.866028,679.046814 627.155823,680.313965 631.109131,680.693726 
	C641.088745,681.652466 645.099243,686.051086 645.124512,696.244446 
	C645.137268,701.394836 644.619385,706.564453 645.760803,711.684082 
	C648.678833,724.772583 657.936340,731.835388 669.504028,736.617981 
	C676.547729,739.530151 683.761047,742.033813 690.791687,744.975708 
	C708.387756,752.338684 719.910645,772.007202 718.669739,791.246643 
	C718.140625,799.451599 716.302490,807.046570 711.734009,813.823059 
	C710.177551,816.131897 711.169128,817.442627 712.457764,819.035645 
	C717.736877,825.561951 722.145508,832.367004 723.524536,841.029846 
	C725.268127,851.982422 722.817566,861.567932 715.799744,869.912659 
	C713.249329,872.945312 712.335388,876.082825 712.390808,880.191406 
	C717.086853,881.348999 720.921509,878.648499 724.991943,877.863098 
	C728.689819,877.149536 732.140503,876.654846 735.773499,877.929749 
	C737.310120,878.468994 739.063538,878.866394 740.652832,878.700317 
	C749.400879,877.786194 757.775452,881.118958 766.461060,880.815186 
	C768.676941,880.737671 771.230225,881.067932 771.264465,883.931885 
	C771.296326,886.604370 768.665955,886.792297 766.777039,886.867126 
	C754.973145,887.334778 743.308411,890.075073 731.440491,889.209656 
	C725.130127,888.749451 718.857605,890.949341 712.557251,889.267883 
	C710.940613,888.836426 708.849976,888.689941 708.407593,886.927856 
	C706.921387,881.007874 703.292175,883.085327 700.553406,885.077454 
	C693.790283,889.996887 686.793457,889.353699 679.649902,886.703491 
	C674.679382,884.859375 670.237732,881.792725 665.036377,880.355896 
	C662.945129,879.778198 661.672180,877.844604 660.861450,875.666199 
	C659.556763,872.160583 657.134766,869.441589 653.983521,866.887329 
	C651.244629,869.261597 648.300903,870.995605 649.334473,875.657654 
	C649.886414,878.147339 647.849060,880.219543 645.353210,881.429504 
	C643.627563,882.266052 641.417114,882.474731 640.512024,884.588440 
	C644.716675,889.265076 657.013489,888.792358 661.804199,883.791443 
	C663.572754,883.570435 664.504211,884.900330 665.458252,885.984314 
	C667.826965,888.675598 667.218201,890.491089 663.635193,891.050049 
	C658.677673,891.823425 653.690430,891.562195 648.697876,891.137634 
	C645.717163,890.884094 642.700684,890.925354 639.704895,891.005737 
	C635.717651,891.112732 632.290344,890.684998 631.846741,885.594238 
	C631.689697,883.790833 630.256409,882.975769 628.570068,883.387329 
	C623.797913,884.551941 618.969116,883.052612 614.146179,883.989807 
	C609.336426,884.924377 598.578674,878.985962 596.171936,874.594971 
	C594.783875,872.062622 592.970703,869.975037 590.418579,868.538696 
	C588.096497,869.518921 586.383850,871.331909 586.718506,873.467102 
	C587.476135,878.299927 584.028503,879.375610 580.963806,880.928772 
	C578.447449,882.204102 573.860962,882.537048 574.862305,886.012207 
	C575.839355,889.403076 580.046143,887.719727 582.863525,887.226318 
	C587.405029,886.430847 592.057861,888.279480 596.614746,886.216553 
	C598.235901,885.482605 600.361572,886.923828 600.566223,889.059204 
	C600.801147,891.508606 598.766724,892.083679 596.857239,892.089722 
	C589.029236,892.114380 581.200256,892.054749 573.372986,891.936584 
	C571.233765,891.904236 569.336670,890.941711 568.651306,888.829834 
	C567.100952,884.052490 563.430969,883.284973 559.152832,883.334351 
	C553.405823,883.400757 548.114441,881.832825 542.715759,879.770447 
	C532.863708,876.006775 528.905579,867.415833 525.315430,859.028259 
	C520.505066,847.789795 522.906494,836.694336 529.117920,826.357605 
	C530.799744,823.558899 533.426331,821.759033 535.745300,819.626160 
	C538.628662,816.974121 539.694153,814.301270 537.419128,810.419983 
	C531.809692,800.850220 531.681519,790.346191 532.297302,779.565369 
	C532.847351,769.933411 534.629089,760.339233 534.556763,750.780090 
	C534.407715,731.087952 536.304321,711.519348 536.873901,691.882202 
	C537.033875,686.366577 541.114136,681.958252 546.675049,680.851990 
	C552.630249,679.667175 554.095093,677.323975 552.214844,671.935791 
	C549.878357,665.239868 547.385010,658.653748 546.449707,651.485718 
	C545.900330,647.275696 543.344666,644.073669 537.911499,644.257751 
	C527.923035,644.596069 517.915527,644.409302 507.916168,644.368958 
	C504.266113,644.354309 501.451141,645.462036 499.884430,649.042358 
	C491.167542,668.963379 477.221405,684.988647 461.851685,699.945679 
	C460.896240,700.875488 459.958374,701.823303 459.017059,702.767517 
	C453.395996,708.405823 453.390625,709.661072 458.955963,715.738403 
	C467.970337,725.582092 468.063538,732.062256 458.483429,741.421875 
	C442.380096,757.154602 430.277008,775.366760 422.106476,796.375427 
	C416.562897,810.629578 406.813904,820.868713 391.374298,824.564697 
	C387.462891,825.501038 386.822388,827.405945 388.209900,831.098633 
	C393.825928,846.045532 391.369385,859.575134 380.277069,871.234741 
	C378.235535,873.380798 378.255676,875.547607 378.700317,877.915955 
	C379.822327,878.956177 381.023407,878.830444 382.140381,878.550293 
	C396.954742,874.835815 411.951294,877.067383 426.846619,877.471436 
	C432.859924,877.634521 438.791901,877.307800 444.766876,877.203308 
	C462.927460,876.885681 481.094360,876.924316 499.258881,876.842834 
	C503.818909,876.822388 506.893585,877.306641 506.851990,883.687683 
	C506.798035,891.962646 507.633240,892.075134 498.745728,892.777893 
	C494.435272,893.118835 490.085632,893.059998 485.754730,893.031555 
	C452.929047,892.816040 420.103790,892.543152 387.278015,892.349487 
	C383.570068,892.327698 379.996277,891.628113 376.403992,890.913452 
	C372.258209,890.088562 369.349670,888.435303 371.987610,883.107300 
	C365.471863,880.444153 359.886017,885.745178 353.801544,884.314758 
	C347.920074,882.932007 341.856018,882.326050 335.644135,881.342773 
	C335.695496,882.513062 335.606903,883.022644 335.755615,883.449524 
	C336.430115,885.385559 339.686646,886.385742 338.359589,888.889465 
	C337.104095,891.258179 334.176971,891.009766 332.020599,890.828613 
	C309.955475,888.975037 287.724487,890.134399 265.729584,887.147034 
	C263.938965,886.903809 261.642395,886.653320 261.670441,884.321167 
	C261.695923,882.200439 263.899048,881.534668 265.634399,881.100281 
	C269.006927,880.256165 272.604401,880.033691 275.958008,879.865723 
	C292.443024,879.039734 308.994354,875.512939 325.456818,879.996338 
	C327.911316,880.664734 330.273743,881.082886 333.089752,880.162231 
	C331.629181,875.889709 328.986145,872.417725 325.971893,869.526306 
	C316.825775,860.752869 315.728638,849.832947 317.028290,838.244873 
	C317.743347,831.868896 316.840424,830.583191 310.525635,831.524658 
	C292.303253,834.241333 273.312866,817.780273 270.240936,802.159607 
	C268.840576,795.038818 270.357239,789.234802 272.146301,783.036255 
	C273.618622,777.935364 272.185394,775.398315 266.956573,775.069885 
	C248.358749,773.901917 233.327896,762.749878 229.382095,744.719543 
	C225.583527,727.361938 232.089584,709.348450 251.494659,700.951111 
	C258.165527,698.064392 265.311310,696.550720 272.777435,698.321777 
	C277.666229,699.481567 280.493927,696.603210 282.733215,692.670837 
	C289.207275,681.301880 299.041718,675.407532 311.842438,672.387024 
	C324.604309,669.375610 336.369385,673.098694 348.575226,674.368408 
	C355.619476,675.101196 362.430237,673.047180 368.374115,669.281311 
	C374.403473,665.461365 380.135864,661.130188 385.749329,656.706970 
	C393.007751,650.987488 399.267975,650.498352 406.460541,656.344543 
	C410.027618,659.243958 412.542725,658.943359 415.335083,655.713135 
	C417.404083,653.319702 419.734802,651.145386 421.721527,648.689514 
	C425.145203,644.457214 424.408875,641.532654 419.466644,639.410217 
	C407.835297,634.415161 398.719360,626.703369 393.967590,614.760864 
	C391.107574,607.572754 388.714386,600.169495 388.793274,592.217468 
	C388.915619,579.885864 388.911011,567.552612 388.903687,555.220093 
	C388.899475,548.146057 386.783966,546.758423 380.916351,550.720947 
	C366.230072,560.638977 352.858490,572.089355 341.479279,585.794006 
	C339.064850,588.701782 339.464447,591.988342 338.775146,595.612549 
M560.500000,426.689819 
	C571.162537,426.690216 581.825073,426.715515 592.487549,426.685211 
	C608.801697,426.638855 625.123657,426.979950 641.417053,425.793365 
	C661.956177,424.297607 678.369507,410.598633 682.030151,390.607300 
	C683.634216,381.847260 683.472534,372.698029 683.483093,363.724792 
	C683.510315,340.416748 683.195740,317.108246 683.001709,293.800049 
	C682.947571,287.303711 682.864746,280.807312 682.736938,274.312073 
	C682.701050,272.489349 682.599182,270.663452 680.943176,269.343475 
	C677.394470,266.514771 673.902954,263.614319 670.392822,260.747253 
	C669.819824,261.152954 669.378967,261.396362 669.022583,261.729950 
	C667.833008,262.843445 666.488403,264.742035 664.988525,262.737518 
	C663.650574,260.949463 665.906616,260.451263 667.004822,259.560028 
	C670.452454,256.762207 671.041382,252.194672 668.375732,247.861282 
	C661.344971,236.431641 650.761902,230.492889 637.636963,230.457413 
	C559.336975,230.245712 481.035858,230.448318 402.735870,230.232956 
	C393.835327,230.208466 385.416229,231.647812 377.537140,235.241486 
	C361.095337,242.740631 350.790527,255.421280 350.446228,273.865021 
	C349.839996,306.340179 350.133759,338.833344 350.192017,371.318695 
	C350.205200,378.670105 350.427917,385.156403 355.617920,392.290649 
	C363.412598,403.005280 372.756226,410.735992 384.002411,416.646820 
	C388.943634,419.243927 393.679291,423.214691 399.320221,423.557617 
	C417.885071,424.686157 436.482880,425.548340 455.078491,425.834625 
	C489.881805,426.370514 524.692444,426.430817 560.500000,426.689819 
M485.500305,449.298157 
	C474.340393,449.320251 463.180084,449.292236 452.020691,449.378937 
	C441.522797,449.460510 432.004791,452.434052 423.888519,459.313232 
	C421.091736,461.683716 418.653778,464.303314 417.612915,467.838409 
	C419.538391,469.710876 421.781128,469.935486 423.789948,470.631378 
	C435.432404,474.664764 444.103638,482.084473 448.807068,493.508575 
	C455.782837,510.451935 449.762207,531.867249 430.392120,538.288879 
	C424.537903,540.229736 418.485901,539.223145 412.525726,539.275940 
	C408.073608,539.315247 406.246033,541.105347 406.284790,545.586731 
	C406.425873,561.908936 406.284180,578.233704 406.440033,594.555664 
	C406.498291,600.653442 408.128967,606.414612 411.909485,611.369263 
	C419.606079,621.456055 430.372803,625.401855 442.490356,625.522156 
	C461.467316,625.710571 480.465118,624.721497 499.427734,625.224487 
	C531.239319,626.068359 563.047791,625.817139 594.848022,625.493286 
	C607.193115,625.367432 616.758789,619.078735 621.574585,607.069031 
	C623.129517,603.191345 623.730469,599.072021 623.731995,594.864746 
	C623.744995,558.887329 623.798706,522.909973 623.788574,486.932556 
	C623.787659,483.782349 623.793518,480.554291 623.157959,477.494995 
	C619.551758,460.136749 606.584534,449.421387 588.841064,449.375305 
	C571.703796,449.330811 554.557068,449.565247 537.427795,449.714233 
	C520.483093,449.861603 503.476593,449.595276 485.500305,449.298157 
M361.706451,696.699402 
	C360.902954,694.835205 361.019043,692.341431 358.122192,691.606812 
	C356.709595,693.619751 356.915283,696.050232 356.361450,698.222107 
	C355.328552,702.272522 353.084839,704.825256 348.709229,704.602051 
	C344.818024,704.403503 342.695496,701.221741 342.805237,696.219360 
	C342.827118,695.221619 342.941895,694.225891 343.015503,693.229370 
	C343.119781,691.818115 342.349976,690.925781 341.085663,690.732483 
	C330.431732,689.103760 319.747192,686.234131 309.013641,689.862427 
	C296.211639,694.189880 290.357605,708.015015 297.328339,717.482422 
	C301.956421,723.768188 306.729675,730.015991 312.049042,735.709839 
	C323.533356,748.002563 333.822540,761.287354 344.598145,774.161316 
	C350.645996,781.386841 356.645721,788.645935 361.114288,797.191833 
	C365.853058,806.254456 375.116760,809.300659 385.084045,807.053467 
	C394.734283,804.877686 401.037872,798.690552 404.637695,790.030090 
	C412.562927,770.963867 423.200897,753.605164 435.781067,737.310303 
	C441.057373,730.476013 438.019775,722.084900 429.135559,719.655884 
	C435.747498,713.962097 430.479584,710.290405 427.052734,706.434448 
	C417.538177,695.728516 407.920654,685.113708 398.294861,674.507324 
	C396.974304,673.052307 395.600098,671.547058 393.637054,670.935852 
	C387.235260,674.812317 387.235229,674.812317 390.793793,681.142212 
	C393.794403,686.479614 391.672760,692.030518 386.224823,692.762512 
	C382.251221,693.296387 380.391937,690.177673 378.294312,687.637512 
	C377.351349,686.495544 376.666229,684.890137 374.753448,685.867371 
	C372.866058,686.831543 373.491028,688.341125 374.122528,689.738525 
	C375.321472,692.391479 375.744843,695.191040 375.390869,698.027649 
	C374.795471,702.800049 369.630829,705.168030 365.574249,702.617249 
	C363.649872,701.407227 362.558197,699.559509 361.706451,696.699402 
M612.500000,795.123718 
	C600.013245,794.907776 587.508240,795.536377 575.043213,794.298157 
	C572.567139,794.052124 570.045288,793.947571 568.897339,790.996216 
	C570.934814,788.956604 573.916626,787.817749 573.998840,784.472107 
	C574.092773,780.645996 576.558838,779.318848 579.899048,779.055481 
	C584.876587,778.663025 589.858948,778.059814 594.841064,778.041138 
	C627.160156,777.919983 659.479797,777.942078 691.799194,777.877075 
	C693.551575,777.873535 695.467896,778.534973 697.464111,776.717407 
	C695.204956,769.407043 690.073303,764.463684 683.321045,761.232422 
	C677.931335,758.653137 672.160095,756.883484 666.678528,754.480103 
	C662.261536,752.543335 658.562622,751.055725 655.896057,757.158264 
	C654.446838,760.474792 650.813049,760.911560 647.652527,759.191223 
	C644.601379,757.530396 643.244934,754.844727 644.367798,751.195618 
	C644.971924,749.232178 646.605286,747.516235 646.198059,745.162170 
	C643.614136,744.810730 642.965942,746.837952 641.864197,748.129028 
	C638.067383,752.578247 634.534546,753.447510 631.228699,750.657166 
	C627.723633,747.698853 628.020874,743.955750 631.952698,739.318726 
	C633.133057,737.926697 635.487854,737.162048 634.950500,734.668762 
	C632.909363,733.047729 631.405334,734.676147 629.838806,735.350281 
	C627.692261,736.273926 625.604431,737.232300 623.203125,737.384399 
	C619.976868,737.588745 617.706360,736.311584 616.428345,733.371826 
	C615.132385,730.390747 616.027649,727.816467 618.192200,725.631775 
	C619.910889,723.897095 622.334351,723.582031 624.514832,722.808655 
	C625.855896,722.333069 627.645142,722.420776 627.324219,720.104675 
	C625.516846,718.610474 623.518494,719.409790 621.642944,719.757446 
	C619.267151,720.197754 616.990112,719.935974 614.736572,719.267273 
	C611.417908,718.282349 609.664734,715.982117 610.060364,712.552429 
	C610.439331,709.267700 612.245239,706.988464 615.836426,706.730042 
	C618.327576,706.550781 620.828125,706.313782 623.319214,706.363647 
	C627.407715,706.445374 626.552185,703.572571 626.687927,701.166016 
	C626.837708,698.510864 625.615662,697.785522 623.073059,697.807373 
	C601.750793,697.991272 580.427368,698.141052 559.104675,698.100342 
	C554.911377,698.092346 553.097839,699.461914 552.945923,703.779358 
	C552.126587,727.063782 550.909363,750.326843 549.389465,773.580444 
	C549.007446,779.425354 555.925171,782.488098 557.881592,787.833435 
	C558.051025,788.296448 559.428406,788.256165 560.190674,788.577759 
	C561.345154,789.064880 562.937195,788.704041 563.609192,790.267883 
	C561.278198,793.278259 558.287170,794.340820 554.492554,794.256897 
	C549.941956,794.156067 549.163086,795.747742 551.426453,799.765930 
	C553.985840,804.309631 557.598999,807.620422 562.836609,808.766235 
	C569.318542,810.184265 575.728577,809.102112 582.099854,807.944580 
	C592.225769,806.104797 602.324402,803.147156 612.633484,806.525696 
	C618.394287,808.413635 624.105591,808.275818 629.869995,807.021912 
	C632.647278,806.417847 635.397705,805.818115 638.255249,805.855957 
	C650.373230,806.016663 662.492371,805.951172 674.433716,808.655334 
	C679.136292,809.720276 683.945557,810.170227 688.804199,809.058777 
	C694.470520,807.762573 697.670715,804.076233 699.339050,798.802124 
	C700.312805,795.723633 699.424500,793.554138 695.842834,794.325256 
	C689.351074,795.722839 682.917236,794.260864 676.457764,794.377319 
	C655.474121,794.755859 634.486267,794.893677 612.500000,795.123718 
M560.158447,202.475311 
	C571.298828,202.070877 582.465515,201.173065 593.156616,203.087036 
	C594.087280,207.159164 588.033508,209.098129 592.158691,212.433548 
	C594.596069,214.404327 597.007629,216.545349 600.305603,217.043533 
	C601.458557,217.217697 602.615295,217.484467 603.772339,217.495819 
	C611.599670,217.572723 619.440918,217.874664 627.249084,217.502335 
	C630.741455,217.335800 634.511902,217.823929 637.896790,216.137146 
	C637.809143,212.630478 635.942688,210.262085 634.091492,207.927094 
	C623.347961,194.375839 609.121887,187.543152 592.017395,187.472229 
	C541.696655,187.263611 491.374359,187.333954 441.052948,187.432114 
	C428.085052,187.457413 416.551178,191.935211 406.702606,200.349304 
	C401.792816,204.543976 398.114960,209.770172 395.196655,216.032242 
	C400.480286,217.060699 404.390991,216.967926 408.505920,213.790604 
	C415.625092,208.293503 423.639130,205.145370 432.628967,209.863541 
	C434.416809,210.801865 435.806854,209.978973 437.329895,209.307663 
	C443.133362,206.749649 449.001160,204.243118 455.426849,203.941406 
	C471.554901,203.184158 487.686798,202.238602 503.825256,202.045593 
	C522.297424,201.824661 540.778259,202.334702 560.158447,202.475311 
M728.368042,586.839966 
	C741.639221,576.443848 751.978027,583.895020 762.181946,593.362915 
	C763.642700,584.590576 761.873535,577.588196 756.966614,571.375488 
	C748.706116,560.916748 741.859497,559.807617 730.765625,567.112732 
	C729.793335,567.752991 728.806580,568.394958 727.933533,569.158508 
	C721.403870,574.869080 716.048645,581.696716 710.938110,588.579102 
	C704.740906,596.924988 709.646179,608.662842 720.261902,611.436279 
	C721.242493,608.654846 721.437805,605.737305 721.706055,602.793579 
	C722.227783,597.068115 723.600708,591.627869 728.368042,586.839966 
M294.116150,564.334412 
	C286.152985,559.427307 277.518280,564.107666 272.473816,569.174072 
	C266.080505,575.595215 263.821838,586.475220 267.879578,594.093079 
	C270.162506,591.317017 271.882904,588.556274 274.222137,586.499329 
	C283.098602,578.694031 302.336517,579.766541 306.338104,595.895813 
	C307.167480,599.238831 308.518768,602.486938 309.941406,605.638000 
	C311.236298,608.506042 313.081787,609.246460 315.628143,606.542542 
	C321.471832,600.337219 321.726868,590.995667 316.664703,584.144653 
	C314.495972,581.209534 310.503662,580.475769 309.017914,577.279724 
	C306.066681,570.931213 300.644287,567.619141 294.116150,564.334412 
M601.101807,845.461609 
	C601.198792,846.620667 601.168823,847.807190 601.412964,848.934326 
	C603.297791,857.637573 609.203552,862.818848 617.216431,865.312988 
	C624.477600,867.573181 631.199524,865.149414 636.342285,859.792236 
	C642.548096,853.327637 643.149963,844.406677 638.633179,836.754517 
	C634.296814,829.407837 623.799561,825.314819 614.682678,827.415527 
	C607.331909,829.109375 601.981628,835.888855 601.101807,845.461609 
M691.316467,528.800476 
	C697.224304,522.987183 697.296997,522.865906 690.868896,518.067810 
	C685.401245,513.986694 679.686951,510.237000 674.184021,506.201263 
	C671.675720,504.361694 669.904236,504.639648 667.795776,506.933563 
	C663.265747,511.861908 659.271118,517.098999 656.076416,523.014771 
	C653.309082,528.139160 653.555786,531.492981 658.172791,535.218384 
	C661.534790,537.931152 665.240601,540.213867 668.736267,542.766174 
	C672.383240,545.429077 675.499634,544.603577 678.457336,541.594116 
	C682.528748,537.451416 686.659912,533.367554 691.316467,528.800476 
M550.325317,863.334167 
	C560.414429,867.929382 570.919250,865.551880 575.996399,857.470520 
	C577.235168,855.498840 578.560974,853.508118 576.308105,851.223450 
	C573.928040,848.809753 574.309814,846.518005 577.015015,844.546021 
	C578.847412,843.210327 578.606689,841.521790 577.958252,839.641418 
	C573.797363,827.575745 555.474670,822.616211 545.874207,830.985596 
	C535.434082,840.086975 537.145081,854.353394 550.325317,863.334167 
M675.541626,861.650146 
	C678.471924,863.768555 682.380188,862.356567 685.519714,865.256287 
	C688.600769,868.101990 697.379395,863.416382 696.809692,859.396362 
	C696.245056,855.411926 697.788574,852.447449 699.043213,849.154053 
	C699.702942,847.422363 700.014893,845.605469 699.613342,843.773743 
	C698.791199,840.022888 700.396484,838.887695 704.099915,840.158142 
	C699.937866,830.518372 692.610291,826.372864 681.855042,827.195679 
	C674.522278,827.756653 668.222412,833.260376 666.046570,841.006348 
	C663.937622,848.514221 667.248901,856.111755 675.541626,861.650146 
M339.287445,513.704712 
	C335.948975,515.956665 336.095276,518.247437 338.989716,520.861755 
	C343.045502,524.525024 346.976807,528.327087 350.925537,532.107178 
	C352.057159,533.190491 353.238403,534.093262 354.878815,533.674805 
	C357.233673,533.074158 359.412170,533.220276 361.599182,534.420105 
	C363.210144,535.303955 364.951660,534.823486 366.269287,533.721191 
	C369.732819,530.823792 375.295349,529.064758 372.618500,522.572083 
	C372.389252,522.016052 372.966095,520.943237 373.440491,520.316345 
	C374.826996,518.484009 374.125671,516.827942 373.110291,515.261841 
	C370.304596,510.934296 367.081543,506.946991 363.357605,503.352753 
	C361.414948,501.477753 359.533264,501.098053 357.125610,502.478058 
	C351.224579,505.860352 345.236969,509.093506 339.287445,513.704712 
M401.023254,488.422302 
	C399.404999,486.658966 397.539062,486.168304 395.177216,486.870392 
	C390.410522,488.287354 385.549316,489.392761 380.803528,490.871887 
	C376.104614,492.336456 375.684418,493.786530 379.018311,497.408173 
	C383.096100,501.837860 386.530334,506.628418 389.249481,512.019592 
	C395.010132,523.441162 395.297882,523.378540 407.935913,520.929138 
	C411.897858,520.161255 413.262512,518.337280 412.770355,514.467407 
	C411.544128,504.825012 408.152557,496.178894 401.023254,488.422302 
M702.189087,334.499359 
	C702.208374,340.142242 702.109497,345.788940 702.292603,351.426483 
	C702.396912,354.637390 704.029724,356.846832 707.414001,354.939026 
	C710.545410,353.173767 713.456116,351.005829 715.677124,347.908905 
	C721.884155,339.253998 722.005005,329.745483 718.947205,320.321899 
	C716.446472,312.615082 711.122986,306.778625 702.191162,303.498444 
	C702.191162,314.049835 702.191162,323.774780 702.189087,334.499359 
M281.775757,730.366577 
	C278.965057,720.250000 273.360199,715.225098 264.672638,715.033142 
	C256.234467,714.846741 248.416336,720.570923 245.891586,728.783997 
	C243.793365,735.609558 246.896225,745.132080 252.927505,747.780701 
	C251.127991,741.759277 248.114853,736.437744 250.996368,730.465454 
	C254.143478,723.942749 259.502197,719.732849 264.747589,720.924011 
	C258.828918,724.160339 253.972351,728.000549 252.909424,734.997498 
	C251.889236,741.713074 260.324310,751.071838 266.470642,749.932922 
	C272.259827,748.860168 281.590942,737.466431 281.775757,730.366577 
M302.355957,805.527832 
	C314.733490,807.190857 319.416901,803.245422 320.057922,790.547119 
	C320.152100,788.681946 320.151245,786.941650 322.045837,785.775452 
	C324.312775,784.380005 323.227081,782.649109 322.197906,781.073547 
	C318.841309,775.934875 307.661652,771.400330 301.531586,772.656372 
	C289.244843,775.173828 282.376190,788.999084 287.833893,800.283264 
	C288.779602,802.238647 289.900757,804.084106 292.691376,803.319275 
	C287.833954,785.975586 295.073608,776.198730 310.848694,778.476929 
	C300.468231,780.030273 295.117920,784.299866 293.628326,792.218933 
	C292.688110,797.217285 295.626526,801.998474 302.355957,805.527832 
M695.814331,556.637085 
	C689.507812,560.601685 689.311646,562.134033 694.478149,567.536926 
	C695.395020,568.495667 696.517517,569.270081 697.364380,570.281006 
	C699.651306,573.010986 701.769104,572.747131 703.892761,570.128723 
	C708.957397,563.884583 715.065125,558.740234 721.339111,553.796997 
	C723.761108,551.888794 724.467407,549.995789 722.233826,547.575256 
	C718.626099,543.665527 715.014465,539.758850 711.355774,535.897034 
	C710.424255,534.913818 709.288208,534.052429 707.858582,535.090088 
	C702.980713,538.630676 698.739746,542.807983 695.132263,547.653442 
	C692.745361,550.859497 696.856873,553.152832 695.814331,556.637085 
M340.717163,840.517273 
	C339.364258,845.571472 339.853241,850.185852 344.325806,853.552490 
	C348.112701,856.403015 352.866577,857.600098 357.052002,856.157227 
	C364.780243,853.492981 369.958191,839.054565 366.635437,831.408447 
	C366.375763,830.810852 366.007263,830.234497 365.584229,829.737854 
	C359.663574,822.788269 348.342529,821.183228 341.000732,826.233582 
	C332.992096,831.742554 329.900940,842.390991 334.015564,850.493835 
	C335.039551,852.510315 336.253082,854.438049 339.171112,854.223267 
	C336.040649,842.556824 337.167145,836.223389 343.029541,831.576904 
	C347.139923,828.319031 352.057953,827.362610 355.777405,829.472778 
	C348.661865,830.207764 343.165955,832.747742 340.717163,840.517273 
M316.163208,533.674805 
	C312.334381,537.393127 308.725647,541.298340 305.626007,545.664673 
	C304.262085,547.585938 304.100189,549.057678 306.116943,550.778320 
	C311.017151,554.959106 317.074066,557.508484 321.538635,562.688904 
	C324.846039,559.074219 327.655273,555.819458 330.659210,552.755493 
	C339.584351,543.652283 339.442566,541.337524 329.199493,533.128113 
	C328.810059,532.816040 328.397491,532.532593 327.993073,532.239441 
	C321.954895,527.862305 321.954773,527.862488 316.163208,533.674805 
M421.945038,671.093445 
	C425.063141,678.800171 430.590637,684.871277 437.512085,688.721802 
	C443.181152,691.875610 446.278717,689.352417 446.702576,683.418152 
	C449.320435,682.755371 452.798401,683.449829 454.025482,680.228516 
	C455.304749,676.870300 452.591583,674.608887 450.681641,672.461792 
	C446.593872,667.866455 441.838226,663.955933 437.113403,660.022827 
	C434.876129,658.160461 433.108124,658.199524 431.199890,660.457397 
	C428.307404,663.879822 425.274048,667.183289 421.945038,671.093445 
M322.937683,307.435791 
	C314.593445,313.982239 310.359314,325.021606 313.128784,333.054474 
	C314.507050,333.559021 315.709747,332.838104 316.945984,332.438660 
	C321.341400,331.018311 326.988678,330.760406 329.779663,327.809296 
	C332.898529,324.511505 330.639252,318.608002 330.819641,313.849030 
	C330.945709,310.522125 331.939484,306.988281 329.877991,303.912048 
	C327.057922,303.950409 325.355469,305.618713 322.937683,307.435791 
M579.762878,644.417969 
	C576.617737,644.653564 573.436707,644.670776 570.336731,645.180847 
	C566.582886,645.798462 564.891357,648.734924 565.417664,652.076599 
	C565.878723,655.004150 567.069946,658.979004 571.220764,658.085022 
	C578.669312,656.480896 585.971619,654.183594 593.306030,652.075012 
	C595.058167,651.571350 596.005737,650.241272 595.830139,648.273376 
	C595.624146,645.964294 594.137207,645.225769 592.099487,645.102844 
	C588.291077,644.873047 584.482788,644.641785 579.762878,644.417969 
M651.388489,502.876678 
	C651.653198,502.456299 651.966370,502.058502 652.174255,501.611694 
	C653.074341,499.676697 656.125305,497.762146 653.709351,495.631989 
	C651.030823,493.270294 647.547180,491.774231 643.783691,491.616455 
	C643.374512,491.599304 642.572937,492.447235 642.553772,492.918427 
	C642.317139,498.726562 641.814209,504.564758 642.789307,510.603333 
	C647.629517,509.628876 648.918335,506.133301 651.388489,502.876678 
M738.931458,599.965881 
	C738.027161,603.209961 738.455566,606.526489 738.438904,609.813477 
	C738.431213,611.319641 738.718750,613.348755 740.535828,613.154419 
	C743.780334,612.807434 747.148987,611.934387 749.693542,609.867981 
	C751.959900,608.027527 750.178406,606.038025 748.734741,604.362549 
	C743.793030,598.627319 741.736755,597.526733 738.931458,599.965881 
M432.574402,509.146606 
	C433.423065,499.010040 428.152069,490.190308 420.299713,489.390350 
	C424.063171,495.920624 427.261688,502.373505 428.490784,509.691803 
	C428.917267,512.231262 430.988464,511.772614 432.574402,509.146606 
M598.326477,666.254761 
	C589.379822,668.973816 580.128113,670.814331 570.822388,674.259827 
	C572.985901,677.146545 574.309631,676.482544 575.703491,675.812683 
	C580.168396,673.667114 584.589111,672.471436 589.568054,674.699951 
	C591.737793,675.671082 594.497192,675.450317 596.022278,673.315674 
	C596.679138,671.225525 594.067200,670.756836 594.658203,668.845337 
	C596.251709,668.167908 597.920166,667.460083 599.575867,666.723511 
	C599.588074,666.718018 599.461243,666.288086 599.324707,666.115295 
	C599.269836,666.045898 599.013245,666.135925 598.326477,666.254761 
M464.713379,662.425781 
	C465.647888,662.557861 466.805145,662.095581 466.486420,661.315125 
	C465.011627,657.703186 463.376526,654.139404 461.498779,650.723206 
	C461.089203,649.978027 459.181427,649.303223 458.423706,649.637817 
	C455.691284,650.844299 452.987457,650.316772 449.437866,649.497498 
	C454.225403,654.900391 459.386780,658.277100 464.713379,662.425781 
M282.505890,601.923950 
	C281.265167,603.457397 279.407745,605.046082 282.381561,606.604187 
	C284.450562,607.688293 287.156433,610.808105 288.789764,608.453125 
	C290.871155,605.452087 290.504517,601.286438 287.925049,597.984131 
	C285.529846,598.389709 284.333160,600.040466 282.505890,601.923950 
M472.269318,653.940125 
	C474.901062,655.042114 476.280212,653.506531 477.296051,651.447021 
	C477.997803,650.024353 477.259399,648.884705 476.141968,648.048645 
	C474.491333,646.813599 473.013763,647.632996 471.699493,648.701965 
	C469.756256,650.282593 469.739807,651.963684 472.269318,653.940125 
z"/>
<path fill="#000000" opacity="1.000000" stroke="none" 
	d="
M420.006836,349.149689 
	C403.516571,338.426666 397.410400,319.416626 404.564728,301.884827 
	C411.414886,285.098419 430.002045,275.231323 448.184509,279.055450 
	C464.487030,282.484253 478.542511,298.809082 477.416260,319.053528 
	C476.477661,335.923920 461.944397,351.962250 444.740448,354.321014 
	C435.958344,355.525085 427.916962,353.670563 420.006836,349.149689 
M457.137756,310.450470 
	C460.321259,303.208069 457.781158,296.390228 450.688477,293.140015 
	C444.358032,290.239105 437.481995,292.851532 434.416718,299.322205 
	C431.880219,304.676697 433.946259,311.172485 439.238892,314.483246 
	C445.576141,318.447418 451.629944,317.269928 457.137756,310.450470 
z"/>
<path fill="#000000" opacity="1.000000" stroke="none" 
	d="
M555.173035,326.398071 
	C552.435181,313.201172 554.532593,301.452332 563.401611,291.537537 
	C573.334900,280.432922 586.036560,276.391449 600.411926,279.471741 
	C615.090820,282.617126 624.198914,292.497223 627.990601,306.737976 
	C633.557007,327.643829 621.740601,347.735168 601.203735,353.305359 
	C581.351562,358.689819 561.549927,347.257782 555.173035,326.398071 
M589.680603,313.921448 
	C597.500671,318.304291 604.090637,317.584167 607.862366,311.934631 
	C611.509888,306.471161 610.277527,299.135284 605.007446,294.939880 
	C599.781677,290.779755 592.668762,291.214691 588.306641,295.961151 
	C583.818604,300.844604 584.149719,307.972412 589.680603,313.921448 
z"/>
<path fill="#000000" opacity="1.000000" stroke="none" 
	d="
M394.541687,257.277527 
	C387.955933,258.738159 383.595551,262.815948 379.494263,267.266052 
	C379.045685,267.752808 378.760284,268.392090 378.303375,268.868713 
	C375.726715,271.556580 373.099854,276.109924 368.998291,272.803497 
	C365.325470,269.842712 369.340851,266.466339 370.983704,263.685822 
	C378.926575,250.242767 391.757660,245.593491 406.406250,244.819427 
	C443.660919,242.850723 480.920746,240.972397 518.239441,240.634735 
	C527.395996,240.551895 536.560242,240.255356 545.699097,239.698074 
	C550.976746,239.376236 553.570679,243.058334 556.093994,246.302643 
	C558.228455,249.047073 555.689941,251.301849 553.260010,252.652939 
	C548.318054,255.400818 542.827820,255.825180 537.299866,256.095123 
	C499.661377,257.933167 462.023376,256.834564 424.381592,256.250488 
	C414.573273,256.098297 404.713745,255.458374 394.541687,257.277527 
z"/>
<path fill="#000000" opacity="1.000000" stroke="none" 
	d="
M501.111328,361.872437 
	C511.734192,373.048279 526.808533,370.726013 533.291260,357.242645 
	C536.473083,350.624634 540.257751,348.502563 545.126892,350.606262 
	C550.418640,352.892548 552.643799,358.747925 550.570374,364.930450 
	C546.108521,378.234680 529.970886,388.861176 515.287903,388.037994 
	C502.656738,387.329834 492.160645,382.456116 484.533752,372.023376 
	C481.920441,368.448639 479.962341,364.659058 479.759735,360.182922 
	C479.535339,355.225403 482.475128,351.190033 486.941071,350.055908 
	C491.151337,348.986725 495.088745,351.062866 497.451385,355.514954 
	C498.541168,357.568451 499.751984,359.557709 501.111328,361.872437 
z"/>
<path fill="#000000" opacity="1.000000" stroke="none" 
	d="
M355.469513,769.517090 
	C343.437317,754.183777 330.412903,740.103088 319.324890,724.470215 
	C318.878967,723.841553 318.748383,722.989258 318.253540,721.655396 
	C323.730194,721.665710 327.006317,719.276611 327.376770,714.090393 
	C329.944244,713.085815 331.085754,714.783203 332.199951,716.119385 
	C345.193512,731.701599 358.637665,746.915161 370.509186,763.414185 
	C374.082733,768.380737 377.927521,772.885498 384.012115,775.547058 
	C389.052612,777.751770 389.430359,783.665344 389.629791,788.616821 
	C389.813446,793.176575 386.168701,794.911865 382.285400,796.414307 
	C380.181671,793.039307 380.630798,789.522217 380.524872,786.119141 
	C380.483765,784.797791 380.801941,783.439087 380.597260,782.154602 
	C380.193115,779.617798 378.289948,778.466309 375.954193,778.453979 
	C373.154907,778.439209 373.161011,780.715027 372.985565,782.754150 
	C372.861359,784.197998 373.867584,785.675537 372.484100,787.653381 
	C365.222015,783.209778 361.192841,775.771729 355.469513,769.517090 
z"/>
<path fill="#000000" opacity="1.000000" stroke="none" 
	d="
M407.569885,750.049927 
	C408.419189,749.178650 408.776062,748.073853 410.493347,748.435791 
	C408.403900,752.000305 406.404266,755.411560 404.404633,758.822876 
	C403.921539,755.335266 406.234985,753.058289 407.569885,750.049927 
z"/>
<path fill="#000000" opacity="1.000000" stroke="none" 
	d="
M622.437622,852.705688 
	C618.335266,853.493591 616.096558,851.535400 614.598511,848.455505 
	C613.182617,845.544373 614.054077,842.933594 616.069824,840.679260 
	C618.126038,838.379517 620.742126,837.495422 623.705078,838.603271 
	C626.386230,839.605896 628.123230,841.611206 628.261475,844.541443 
	C628.448181,848.497070 626.346863,851.065308 622.437622,852.705688 
z"/>
<path fill="#000000" opacity="1.000000" stroke="none" 
	d="
M609.682251,842.803955 
	C606.736755,849.568665 610.459351,854.085449 614.757385,858.917053 
	C608.752869,856.535156 605.144287,851.000244 605.864990,846.074951 
	C606.958862,838.598938 612.297974,833.285278 620.197876,832.505310 
	C616.114807,835.765869 611.570923,837.750244 609.682251,842.803955 
z"/>
<path fill="#000000" opacity="1.000000" stroke="none" 
	d="
M554.477417,851.581970 
	C550.698914,846.428467 550.968933,842.576477 554.976685,839.791016 
	C558.650330,837.237610 562.501465,837.810547 564.972961,841.284363 
	C567.122375,844.305420 566.698303,847.346008 564.440247,849.925720 
	C561.838013,852.898499 558.608826,854.270691 554.477417,851.581970 
z"/>
<path fill="#000000" opacity="1.000000" stroke="none" 
	d="
M543.851562,845.350464 
	C546.278870,836.785522 548.195801,834.665344 555.919006,833.108826 
	C548.356934,839.259216 543.241394,845.376526 547.774841,854.766846 
	C544.219604,852.441589 543.569092,849.278442 543.851562,845.350464 
z"/>
<path fill="#000000" opacity="1.000000" stroke="none" 
	d="
M692.056396,848.740234 
	C689.528748,851.957581 686.789185,854.265808 682.907410,852.483826 
	C679.822144,851.067383 678.051819,848.350159 678.655518,844.778870 
	C679.282898,841.067017 681.755005,838.978882 685.423767,838.493774 
	C690.852966,837.775940 694.041504,842.461670 692.056396,848.740234 
z"/>
<path fill="#000000" opacity="1.000000" stroke="none" 
	d="
M679.908325,833.164185 
	C680.847473,833.060791 681.484924,833.060791 682.934021,833.060791 
	C678.411255,837.012268 673.948669,840.313660 673.276245,846.167480 
	C672.554749,852.448853 676.724426,856.185059 681.025513,860.145691 
	C674.984558,858.800659 671.074097,854.422485 670.364990,848.582275 
	C669.733887,843.385376 673.970093,836.365417 679.908325,833.164185 
z"/>
<path fill="#000000" opacity="1.000000" stroke="none" 
	d="
M272.054382,737.812256 
	C269.429626,741.643066 266.415741,743.662598 262.177094,741.354492 
	C258.963470,739.604431 257.384521,736.773132 258.226898,733.053284 
	C259.162537,728.921692 263.567749,726.211304 267.277924,727.308167 
	C271.507568,728.558716 273.570801,732.775024 272.054382,737.812256 
z"/>
<path fill="#000000" opacity="1.000000" stroke="none" 
	d="
M301.481628,786.298706 
	C305.363525,784.037842 308.782227,784.069580 311.726532,787.108154 
	C313.907471,789.359009 314.109467,792.124451 312.834259,794.913086 
	C310.837128,799.280457 306.244537,801.011230 302.655609,798.851013 
	C298.262146,796.206360 297.685974,791.462219 301.481628,786.298706 
z"/>
<path fill="#000000" opacity="1.000000" stroke="none" 
	d="
M352.890869,850.004272 
	C348.003540,849.783081 345.345154,847.557617 345.407898,842.923401 
	C345.466339,838.605652 348.512909,835.003479 352.106262,835.020386 
	C356.103058,835.039307 359.168854,836.850708 360.170715,840.952515 
	C361.239075,845.326599 358.915558,848.223755 352.890869,850.004272 
z"/>
</svg>